#!OML:ASF I:\Actors\actors\Patient Classification 1\Patient 1\Session 1\Subject1.ASF
:FULLY-SPECIFIED
:DEGREES
679
root 0.637827 17.4568 9.78773 9.34044 -4.44792 -7.61729
lowerback -4.79807 1.77495 6.15182
upperback -8.49324 2.36728 1.09039
thorax -5.99785 0.84256 -2.30085
lowerneck -5.09719 -4.69849 -2.85152
upperneck 22.0383 -8.86946 12.0262
head 8.32598 -3.40509 3.71885
rclavicle -8.34896e-015 2.38542e-014
rhumerus -8.22629 40.3987 -84.6309
rradius 134.911
rwrist -31.9827
rhand 4.05757 -71.1194
rfingers 7.12502
rthumb 29.4707 -261.199
lclavicle -8.34896e-015 2.38542e-014
lhumerus -85.3916 41.7515 9.26533
lradius 23.3776
lwrist -16.2064
lhand -36.2248 -13.2899
lfingers 7.12502
lthumb -9.3267 16.4838
rfemur -1.93902 24.5924 24.592
rtibia 2.65763
rfoot -12.9672 -23.4448
rtoes 3.86766
lfemur 10.4662 -45.3973 -18.3453
ltibia -4.79553
lfoot -30.7184 55.6949
ltoes 17.7254
680
root 0.639843 17.4622 9.76055 9.288 -4.23313 -7.60637
lowerback -4.60067 1.81226 6.23843
upperback -8.6008 2.4344 0.995598
thorax -6.21541 0.858878 -2.45591
lowerneck -5.27608 -4.84428 -3.35691
upperneck 22.122 -9.12639 12.4804
head 8.45418 -3.51716 3.93299
rclavicle 1.56046e-014 -8.74653e-015
rhumerus -7.51808 39.3139 -84.6018
rradius 134.766
rwrist -30.1115
rhand 5.55817 -70.2933
rfingers 7.12502
rthumb 30.9022 -262.287
lclavicle 1.56046e-014 -8.74653e-015
lhumerus -85.3822 42.1761 8.9774
lradius 23.1505
lwrist -16.7982
lhand -37.0547 -12.9598
lfingers 7.12502
lthumb -10.1274 16.7765
rfemur -1.98293 24.5479 24.5826
rtibia 2.67736
rfoot -12.9807 -23.5951
rtoes 3.91334
lfemur 10.0831 -45.0932 -18.0169
ltibia -4.72476
lfoot -29.8288 55.3445
ltoes 17.1455
681
root 0.641559 17.467 9.73713 9.25357 -4.06172 -7.6116
lowerback -4.57605 1.88014 6.22037
upperback -8.60393 2.52585 0.942592
thorax -6.2229 0.903798 -2.50233
lowerneck -5.51144 -5.08244 -3.65022
upperneck 21.9579 -9.44803 12.6697
head 8.49568 -3.67292 4.00658
rclavicle -2.40529e-014 2.38542e-014
rhumerus -5.05017 39.3809 -82.9583
rradius 135.191
rwrist -29.0744
rhand 4.34503 -70.0778
rfingers 7.12502
rthumb 29.745 -262.289
lclavicle -2.40529e-014 2.38542e-014
lhumerus -85.0164 42.8846 9.18781
lradius 23.0314
lwrist -16.3386
lhand -37.7195 -12.618
lfingers 7.12502
lthumb -10.7687 17.0859
rfemur -2.03207 24.4277 24.574
rtibia 2.67523
rfoot -12.9188 -23.6534
rtoes 3.80369
lfemur 9.9408 -45.1692 -17.878
ltibia -4.73411
lfoot -29.5245 55.2945
ltoes 17.0326
682
root 0.644619 17.4696 9.71673 9.22599 -3.905 -7.67111
lowerback -4.57576 1.95961 6.29002
upperback -8.60003 2.6299 0.88852
thorax -6.20545 0.950391 -2.59758
lowerneck -5.40397 -5.39491 -3.31317
upperneck 21.1325 -9.7568 12.3672
head 8.19523 -3.8557 3.80252
rclavicle -1.64991e-014 3.97569e-016
rhumerus -4.16918 38.6118 -82.7691
rradius 135.371
rwrist -27.0805
rhand 4.00165 -68.9474
rfingers 7.12502
rthumb 29.4173 -263.361
lclavicle -1.64991e-014 3.97569e-016
lhumerus -84.3904 43.7035 9.72618
lradius 23.0546
lwrist -15.1192
lhand -38.0323 -12.2723
lfingers 7.12502
lthumb -11.0705 17.4157
rfemur -2.06105 24.3891 24.634
rtibia 2.67424
rfoot -12.9062 -23.7447
rtoes 3.83804
lfemur 9.94222 -45.4442 -17.7976
ltibia -4.80888
lfoot -29.4625 55.445
ltoes 17.0689
683
root 0.64761 17.4717 9.6956 9.19749 -3.75768 -7.75289
lowerback -4.50511 2.05361 6.43633
upperback -8.6372 2.76039 0.824207
thorax -6.26739 1.00156 -2.74939
lowerneck -5.68575 -5.42959 -3.62476
upperneck 21.0666 -9.85571 12.8145
head 8.27342 -3.87823 3.98931
rclavicle -2.40529e-014 -4.37326e-015
rhumerus -2.56643 38.0228 -81.8056
rradius 135.402
rwrist -25.205
rhand 4.28032 -68.0082
rfingers 7.12502
rthumb 29.6833 -264.348
lclavicle -2.40529e-014 -4.37326e-015
lhumerus -83.8148 44.6078 10.1043
lradius 23.1482
lwrist -13.5297
lhand -37.7459 -12.8637
lfingers 7.12502
lthumb -10.7942 16.8389
rfemur -2.07794 24.5011 24.7377
rtibia 2.68303
rfoot -12.9555 -23.954
rtoes 3.94526
lfemur 9.86681 -45.5783 -17.625
ltibia -4.85095
lfoot -29.3494 55.4705
ltoes 17.1737
684
root 0.650311 17.4737 9.67543 9.16501 -3.62129 -7.74517
lowerback -4.44641 2.11197 6.44524
upperback -8.68865 2.84444 0.780967
thorax -6.34662 1.03797 -2.80295
lowerneck -5.19032 -5.41958 -3.49868
upperneck 19.9387 -9.72506 12.9281
head 7.79244 -3.86306 4.016
rclavicle 1.0635e-014 4.77083e-015
rhumerus -1.01873 37.3329 -80.8303
rradius 135.388
rwrist -24.1481
rhand 4.4677 -67.5572
rfingers 7.12502
rthumb 29.8621 -264.831
lclavicle 1.0635e-014 4.77083e-015
lhumerus -83.6698 45.6165 9.9202
lradius 23.3244
lwrist -11.5164
lhand -36.5586 -15.7247
lfingers 7.12502
lthumb -9.64877 14.0343
rfemur -2.07322 24.5975 24.7349
rtibia 2.63716
rfoot -12.9668 -24.1792
rtoes 4.14607
lfemur 9.70575 -45.5579 -17.4978
ltibia -4.82969
lfoot -29.152 55.3358
ltoes 17.1828
685
root 0.654347 17.4752 9.65663 9.13804 -3.4624 -7.69708
lowerback -4.02506 2.22875 6.6155
upperback -9.02248 3.04258 0.566376
thorax -6.91754 1.09104 -3.14778
lowerneck -4.28216 -5.45071 -4.18372
upperneck 18.7472 -9.80108 14.2823
head 7.34308 -3.92921 4.58921
rclavicle -7.45443e-015 1.86858e-014
rhumerus -0.275525 36.6053 -80.3761
rradius 135.527
rwrist -23.3524
rhand 4.34943 -67.3877
rfingers 7.12502
rthumb 29.7492 -264.98
lclavicle -7.45443e-015 1.86858e-014
lhumerus -80.9245 45.7559 13.4969
lradius 23.7692
lwrist -10.2941
lhand -37.5974 -12.9357
lfingers 7.12502
lthumb -10.651 16.7743
rfemur -2.03838 24.6749 24.6816
rtibia 2.51392
rfoot -12.9599 -24.4198
rtoes 4.50096
lfemur 9.52819 -45.5428 -17.4152
ltibia -4.80603
lfoot -28.7172 55.2257
ltoes 16.7744
686
root 0.659415 17.4757 9.639 9.10797 -3.28635 -7.67168
lowerback -4.41482 2.24905 6.54624
upperback -8.76663 3.02668 0.598743
thorax -6.41975 1.11227 -3.0531
lowerneck -5.27755 -6.04279 -3.92385
upperneck 18.8001 -10.5171 13.4944
head 7.56288 -4.26931 4.18162
rclavicle -3.22031e-014 1.63003e-014
rhumerus 1.75092 36.0241 -79.0322
rradius 135.517
rwrist -22.6185
rhand 4.78455 -67.0291
rfingers 7.12502
rthumb 30.1645 -265.414
lclavicle -3.22031e-014 1.63003e-014
lhumerus -79.2242 47.1336 15.7227
lradius 24.1174
lwrist -9.67674
lhand -37.7594 -12.81
lfingers 7.12502
lthumb -10.8072 16.892
rfemur -1.9715 24.8635 24.6753
rtibia 2.38914
rfoot -13.0052 -24.7629
rtoes 4.77965
lfemur 9.38727 -45.5624 -17.3257
ltibia -4.8143
lfoot -28.2366 55.1465
ltoes 16.3563
687
root 0.663197 17.4759 9.62259 9.02968 -3.07799 -7.61843
lowerback -4.34343 2.30043 6.56995
upperback -8.81178 3.09989 0.505828
thorax -6.49679 1.1405 -3.16793
lowerneck -4.48453 -5.75417 -4.67353
upperneck 17.4346 -10.1078 14.9104
head 7.04496 -4.10893 4.8284
rclavicle -2.98177e-015 -1.98785e-015
rhumerus 2.97943 35.3635 -78.2181
rradius 135.476
rwrist -21.7789
rhand 5.20033 -66.5652
rfingers 7.12502
rthumb 30.561 -265.951
lclavicle -2.98177e-015 -1.98785e-015
lhumerus -77.4658 47.9809 17.7332
lradius 24.4331
lwrist -9.08058
lhand -37.1635 -14.8652
lfingers 7.12502
lthumb -10.2323 14.866
rfemur -1.85744 25.0609 24.6731
rtibia 2.32759
rfoot -13.1245 -25.1486
rtoes 5.15722
lfemur 9.3063 -45.5389 -17.2887
ltibia -4.84654
lfoot -27.729 54.9952
ltoes 16.1107
688
root 0.665376 17.477 9.60721 8.9435 -2.82453 -7.56053
lowerback -4.28478 2.28923 6.54726
upperback -8.85554 3.09084 0.466867
thorax -6.57772 1.13254 -3.19983
lowerneck -4.40176 -5.78555 -4.85766
upperneck 16.913 -10.104 15.1653
head 6.88454 -4.12669 4.94006
rclavicle 1.51076e-014 1.63003e-014
rhumerus 4.14664 35.0807 -77.4196
rradius 135.488
rwrist -20.8537
rhand 4.6283 -66.2464
rfingers 7.12502
rthumb 30.0154 -266.169
lclavicle 1.51076e-014 1.63003e-014
lhumerus -75.9464 48.8176 19.435
lradius 24.7574
lwrist -8.16974
lhand -35.7187 -18.8351
lfingers 7.12502
lthumb -8.83837 10.9599
rfemur -1.75059 25.1452 24.6667
rtibia 2.28586
rfoot -13.2239 -25.4859
rtoes 5.64078
lfemur 9.1889 -45.48 -17.2255
ltibia -4.86166
lfoot -27.1285 54.7999
ltoes 15.7545
689
root 0.66758 17.4779 9.59308 8.88095 -2.55314 -7.58788
lowerback -4.22565 2.30119 6.64938
upperback -8.925 3.11347 0.414999
thorax -6.67936 1.13042 -3.31534
lowerneck -4.05037 -5.84745 -4.67473
upperneck 16.113 -10.0757 15.0723
head 6.54989 -4.15918 4.88004
rclavicle -1.799e-014 -1.59028e-014
rhumerus 5.09837 34.8818 -76.6718
rradius 135.456
rwrist -19.7732
rhand 3.5473 -65.807
rfingers 7.12502
rthumb 28.9834 -266.426
lclavicle -1.799e-014 -1.59028e-014
lhumerus -72.3714 48.9181 24.029
lradius 25.2245
lwrist -8.22016
lhand -36.4797 -18.2165
lfingers 7.12502
lthumb -9.57262 11.546
rfemur -1.65856 25.1865 24.7509
rtibia 2.20424
rfoot -13.1787 -25.8
rtoes 5.64956
lfemur 9.00953 -45.3309 -17.0018
ltibia -4.88244
lfoot -26.5404 54.5183
ltoes 15.3436
690
root 0.670899 17.4781 9.5796 8.82506 -2.25656 -7.65621
lowerback -4.08941 2.35942 6.87334
upperback -9.05313 3.20471 0.295257
thorax -6.87479 1.14669 -3.5754
lowerneck -3.74419 -6.04723 -4.99202
upperneck 15.4601 -10.2995 15.4545
head 6.34942 -4.30318 5.04166
rclavicle 2.38542e-014 1.94809e-014
rhumerus 5.81237 34.5352 -76.029
rradius 135.384
rwrist -18.6992
rhand 2.61524 -65.3933
rfingers 7.12502
rthumb 28.0928 -266.691
lclavicle 2.38542e-014 1.94809e-014
lhumerus -69.8677 49.2194 26.8127
lradius 25.5484
lwrist -8.21173
lhand -35.1775 -21.5759
lfingers 7.12502
lthumb -8.3161 8.24039
rfemur -1.57227 25.1741 24.8783
rtibia 2.13193
rfoot -13.1778 -26.0446
rtoes 5.5709
lfemur 8.88103 -45.225 -16.7527
ltibia -4.96567
lfoot -26.0061 54.2462
ltoes 14.9635
691
root 0.673754 17.4797 9.56722 8.77914 -1.93775 -7.66662
lowerback -3.74768 2.35509 7.0095
upperback -9.38555 3.24223 0.207481
thorax -7.42488 1.12388 -3.76834
lowerneck -3.27554 -6.14281 -5.37964
upperneck 14.9669 -10.3967 15.8359
head 6.16095 -4.39171 5.23383
rclavicle 5.96354e-015 2.46493e-014
rhumerus 6.12664 34.2955 -75.6504
rradius 135.359
rwrist -17.8393
rhand 2.11453 -65.0983
rfingers 7.12502
rthumb 27.6141 -266.908
lclavicle 5.96354e-015 2.46493e-014
lhumerus -66.5016 48.4959 31.2401
lradius 26.2008
lwrist -8.83246
lhand -35.2473 -20.7291
lfingers 7.12502
lthumb -8.38347 9.0845
rfemur -1.52279 25.0848 24.9206
rtibia 2.10496
rfoot -13.2981 -26.2263
rtoes 5.867
lfemur 8.84687 -45.432 -16.6796
ltibia -5.04214
lfoot -25.6731 54.2143
ltoes 14.7278
